<svg xmlns="http://www.w3.org/2000/svg" xmlns:lucid="lucid" width="740" height="1180"><g lucid:page-tab-id="0_0" stroke="#5e5e5e" stroke-width="3"><path d="M120 70c0 27.6-22.4 50-50 50S20 97.6 20 70s22.4-50 50-50 50 22.4 50 50zM120 370c0 27.6-22.4 50-50 50s-50-22.4-50-50 22.4-50 50-50 50 22.4 50 50zM120 670c0 27.6-22.4 50-50 50s-50-22.4-50-50 22.4-50 50-50 50 22.4 50 50zM120 970c0 27.6-22.4 50-50 50s-50-22.4-50-50 22.4-50 50-50 50 22.4 50 50zM320 70c0 27.6-22.4 50-50 50s-50-22.4-50-50 22.4-50 50-50 50 22.4 50 50zM320 370c0 27.6-22.4 50-50 50s-50-22.4-50-50 22.4-50 50-50 50 22.4 50 50zM320 670c0 27.6-22.4 50-50 50s-50-22.4-50-50 22.4-50 50-50 50 22.4 50 50zM320 970c0 27.6-22.4 50-50 50s-50-22.4-50-50 22.4-50 50-50 50 22.4 50 50zM520 70c0 27.6-22.4 50-50 50s-50-22.4-50-50 22.4-50 50-50 50 22.4 50 50zM520 370c0 27.6-22.4 50-50 50s-50-22.4-50-50 22.4-50 50-50 50 22.4 50 50zM520 670c0 27.6-22.4 50-50 50s-50-22.4-50-50 22.4-50 50-50 50 22.4 50 50zM520 970c0 27.6-22.4 50-50 50s-50-22.4-50-50 22.4-50 50-50 50 22.4 50 50zM720 70c0 27.6-22.4 50-50 50s-50-22.4-50-50 22.4-50 50-50 50 22.4 50 50zM720 370c0 27.6-22.4 50-50 50s-50-22.4-50-50 22.4-50 50-50 50 22.4 50 50zM720 670c0 27.6-22.4 50-50 50s-50-22.4-50-50 22.4-50 50-50 50 22.4 50 50zM720 970c0 27.6-22.4 50-50 50s-50-22.4-50-50 22.4-50 50-50 50 22.4 50 50z" fill="#6db1ff"/><path d="M20 146a6 6 0 0 1 6-6h688a6 6 0 0 1 6 6v108a6 6 0 0 1-6 6H26a6 6 0 0 1-6-6zM20 446a6 6 0 0 1 6-6h688a6 6 0 0 1 6 6v108a6 6 0 0 1-6 6H26a6 6 0 0 1-6-6zM20 746a6 6 0 0 1 6-6h688a6 6 0 0 1 6 6v108a6 6 0 0 1-6 6H26a6 6 0 0 1-6-6zM20 1046a6 6 0 0 1 6-6h688a6 6 0 0 1 6 6v108a6 6 0 0 1-6 6H26a6 6 0 0 1-6-6z" fill="#ced4db"/></g></svg>